Coordinates
version=1
nRows=24
nColumns=22
inDegrees=yes

Units are S.I. units (second, meters, Newtons, ...)
If the header above contains a line with 'inDegrees', this indicates whether rotational values are in degrees (yes) or radians (no).

endheader
time	pelvis_tilt	pelvis_list	pelvis_rotation	pelvis_tx	pelvis_ty	pelvis_tz	hip_flexion_r	hip_adduction_r	hip_rotation_r	knee_angle_r	ankle_angle_r	subtalar_angle_r	hip_flexion_l	hip_adduction_l	hip_rotation_l	knee_angle_l	ankle_angle_l	subtalar_angle_l	lumbar_extension	lumbar_bending	lumbar_rotation
      4.03000000	      5.33931440	     -1.77599616	    -90.06976549	      0.39443958	      1.07121334	      0.41645688	     -0.32557737	     -4.34297972	      8.91644868	    -49.15387548	     -6.17560972	     10.98064304	     10.43573838	      5.10345336	      2.27830573	    -11.42849755	      3.16317586	      3.23039564	     -2.59948366	     -6.37297342	      0.34616551
      4.04000000	      5.44182945	     -1.84903216	    -90.24713541	      0.39707476	      1.07199867	      0.42288220	      0.39819882	     -4.59045686	      8.92096674	    -50.61641653	     -7.11843042	     11.72278375	      9.89990324	      5.35682897	      2.17865345	    -11.27624957	      3.41694816	      2.98312340	     -2.65862102	     -6.50007724	      0.03761038
      4.05000000	      5.53922509	     -1.91719376	    -90.39452824	      0.39966341	      1.07272397	      0.42914369	      1.12258208	     -4.83661527	      8.88646061	    -52.01181734	     -7.92368211	     12.64323148	      9.38370075	      5.61230101	      2.10298398	    -11.13153389	      3.65537978	      2.70541903	     -2.71322802	     -6.62206967	     -0.28396875
      4.06000000	      5.62442297	     -1.98236346	    -90.51878072	      0.40219189	      1.07339496	      0.43522605	      1.84146521	     -5.06857720	      8.83103047	    -53.32112008	     -8.57500209	     13.66724898	      8.88305914	      5.85984027	      2.04471549	    -10.99070978	      3.88535551	      2.39758366	     -2.76746672	     -6.73060794	     -0.59895153
      4.07000000	      5.70283870	     -2.03978950	    -90.62849467	      0.40464879	      1.07401414	      0.44114878	      2.55370354	     -5.29114022	      8.76232637	    -54.52807919	     -9.03892843	     14.67022189	      8.39187044	      6.10062326	      1.98459023	    -10.83125450	      4.08779262	      2.07084670	     -2.81360597	     -6.83211032	     -0.90824807
      4.08000000	      5.76890136	     -2.09406196	    -90.72614866	      0.40701858	      1.07458647	      0.44689188	      3.25218767	     -5.49040289	      8.69228904	    -55.62302062	     -9.29031176	     15.52406602	      7.91414814	      6.32722274	      1.92843290	    -10.66942106	      4.27075481	      1.73300406	     -2.86070276	     -6.92201492	     -1.19467741
      4.09000000	      5.84768846	     -2.16314934	    -90.81290620	      0.40929707	      1.07512585	      0.45244276	      3.91955315	     -5.69506206	      8.61531329	    -56.60889610	     -9.29080221	     16.02473157	      7.44615179	      6.56430944	      1.86073325	    -10.53143206	      4.41948184	      1.45093183	     -2.93461850	     -7.03161330	     -1.47137364
      4.10000000	      5.87149777	     -2.21034709	    -90.89936242	      0.41144987	      1.07561829	      0.45789481	      4.57664524	     -5.81935683	      8.55849706	    -57.45640889	     -9.04922380	     16.37374116	      6.99263869	      6.73613302	      1.80174934	    -10.36476110	      4.59885609	      1.09251290	     -2.97423261	     -7.08202458	     -1.70592370
      4.11000000	      5.89216771	     -2.26950435	    -90.98288466	      0.41347979	      1.07607463	      0.46313387	      5.20581341	     -5.91931470	      8.51969964	    -58.19418164	     -8.55774365	     16.36927580	      6.56209102	      6.90030769	      1.76903133	    -10.24328152	      4.77125073	      0.74082971	     -3.04106359	     -7.13733739	     -1.91671418
      4.12000000	      5.92464744	     -2.34275402	    -91.05356525	      0.41542179	      1.07650448	      0.46822747	      5.79423392	     -6.02720280	      8.46633567	    -58.81084097	     -7.82264302	     16.09500508	      6.14647190	      7.06983923	      1.69555389	    -10.15566749	      4.93433714	      0.48241416	     -3.12969910	     -7.21081247	     -2.13334240
      4.13000000	      5.92744974	     -2.39093944	    -91.12804255	      0.41725464	      1.07687212	      0.47320147	      6.38239773	     -6.09494913	      8.40011272	    -59.29616981	     -6.94540884	     15.37938766	      5.75885129	      7.20342952	      1.66957203	    -10.05849165	      5.09291425	      0.11557602	     -3.18536006	     -7.25308061	     -2.31010767
      4.14000000	      5.93610817	     -2.45199862	    -91.18596890	      0.41901351	      1.07721604	      0.47801674	      6.93173901	     -6.16393803	      8.31752739	    -59.66174773	     -5.96730925	     14.52651950	      5.38972459	      7.33759829	      1.62347295	    -10.00201959	      5.25955017	     -0.16079768	     -3.26443697	     -7.30658387	     -2.49644538
      4.15000000	      5.94669500	     -2.51026148	    -91.23617855	      0.42071649	      1.07753171	      0.48271656	      7.46048625	     -6.24079037	      8.20653603	    -59.90624879	     -4.96871583	     13.54591377	      5.03569702	      7.46996556	      1.58036692	     -9.95442140	      5.42681640	     -0.41057368	     -3.34041723	     -7.36094148	     -2.67441604
      4.16000000	      5.94620374	     -2.57444735	    -91.27440994	      0.42235628	      1.07783352	      0.48726256	      7.96097395	     -6.30124198	      8.08070890	    -60.03780646	     -3.99058593	     12.48637471	      4.69588791	      7.58652862	      1.55203434	     -9.93139857	      5.59843524	     -0.64196574	     -3.43108041	     -7.40263656	     -2.85787702
      4.17000000	      5.94652553	     -2.64202721	    -91.30318935	      0.42395797	      1.07812886	      0.49169268	      8.43804374	     -6.36821052	      7.93171029	    -60.06338399	     -3.03944547	     11.46494986	      4.35869369	      7.70097203	      1.53629193	     -9.90801758	      5.76460580	     -0.84566029	     -3.52715104	     -7.44171789	     -3.03715274
      4.18000000	      5.94457212	     -2.71372887	    -91.32137286	      0.42551118	      1.07842041	      0.49602327	      8.89099845	     -6.43572619	      7.75895155	    -59.99232952	     -2.10066965	     10.51265875	      4.02012105	      7.80881554	      1.53650098	     -9.88224532	      5.92330170	     -1.02818742	     -3.62652723	     -7.47588396	     -3.21328294
      4.19000000	      5.94031606	     -2.79024111	    -91.33273850	      0.42702107	      1.07870918	      0.50023572	      9.32167406	     -6.50118917	      7.57245869	    -59.83238489	     -1.16388617	      9.64903269	      3.68220349	      7.91059893	      1.55346248	     -9.85736179	      6.07413527	     -1.19361584	     -3.73220846	     -7.50381266	     -3.38962518
      4.20000000	      5.93425413	     -2.86542337	    -91.33572846	      0.42848841	      1.07898907	      0.50434254	      9.73343907	     -6.56571188	      7.36880549	    -59.58623673	     -0.20849498	      8.86938707	      3.34740867	      8.00634128	      1.58554938	     -9.82643704	      6.21281771	     -1.34659301	     -3.83650383	     -7.52569182	     -3.55487984
      4.21000000	      5.92748711	     -2.93757085	    -91.33689354	      0.42989067	      1.07925438	      0.50833069	     10.13036720	     -6.62254816	      7.16477228	    -59.26185132	      0.77423187	      8.15224171	      3.02006731	      8.09631869	      1.63614107	     -9.79374579	      6.33590458	     -1.49192379	     -3.93743093	     -7.54532003	     -3.71612141
      4.22000000	      5.92139817	     -3.00317914	    -91.33319460	      0.43123591	      1.07950076	      0.51220549	     10.51402646	     -6.67510863	      6.95706745	    -58.86174514	      1.78057372	      7.47632499	      2.70324298	      8.18216520	      1.69776753	     -9.75811916	      6.44651206	     -1.63341044	     -4.03268608	     -7.56445207	     -3.87129112
      4.23000000	      5.91400263	     -3.06230568	    -91.32672288	      0.43251441	      1.07973319	      0.51597621	     10.87967342	     -6.71965502	      6.74817879	    -58.38360255	      2.79881631	      6.82372954	      2.39977464	      8.26200158	      1.76745170	     -9.72618799	      6.54912956	     -1.77383423	     -4.11879231	     -7.58212114	     -4.01677669
      4.24000000	      5.89282175	     -3.11475695	    -91.32463009	      0.43371167	      1.07994292	      0.51961438	     11.23616977	     -6.74213630	      6.54042343	    -57.84296713	      3.81332181	      6.19303505	      2.10899276	      8.32158395	      1.83626261	     -9.69187300	      6.64500680	     -1.91193526	     -4.20277906	     -7.58438254	     -4.14696985
      4.25000000	      5.86811766	     -3.15986667	    -91.31586151	      0.43484761	      1.08013650	      0.52314080	     11.57472604	     -6.75615183	      6.32877568	    -57.23383372	      4.80529554	      5.60213554	      1.83337127	      8.37353269	      1.90647522	     -9.66071373	      6.74642899	     -2.04388868	     -4.28184083	     -7.58263432	     -4.28236700
      4.26000000	      5.83081292	     -3.19893588	    -91.30524733	      0.43591030	      1.08031496	      0.52655188	     11.89722317	     -6.75164708	      6.11391550	    -56.56568425	      5.75640129	      5.05628463	      1.56953592	      8.40753273	      1.97323884	     -9.62733227	      6.85314143	     -2.16694562	     -4.35769044	     -7.56633740	     -4.42704685
